<?xml version="1.0" encoding="UTF-8" standalone="no"?>
<!DOCTYPE svg PUBLIC "-//W3C//DTD SVG 1.1//EN"
 "http://www.w3.org/Graphics/SVG/1.1/DTD/svg11.dtd">
<!-- Generated by graphviz version 2.43.0 (0)
 -->
<!-- Title: bitlog::Logger::info Pages: 1 -->
<svg width="426pt" height="104pt"
 viewBox="0.00 0.00 426.00 104.00" xmlns="http://www.w3.org/2000/svg" xmlns:xlink="http://www.w3.org/1999/xlink">
<g id="graph0" class="graph" transform="scale(1 1) rotate(0) translate(4 100)">
<title>bitlog::Logger::info</title>
<!-- Node1 -->
<g id="node1" class="node">
<title>Node1</title>
<g id="a_node1"><a xlink:title=" ">
<polygon fill="#bfbfbf" stroke="black" points="0,-38.5 0,-57.5 108,-57.5 108,-38.5 0,-38.5"/>
<text text-anchor="middle" x="54" y="-45.5" font-family="Helvetica,sans-Serif" font-size="10.00">bitlog::Logger::info</text>
</a>
</g>
</g>
<!-- Node2 -->
<g id="node2" class="node">
<title>Node2</title>
<g id="a_node2"><a xlink:href="classbitlog_1_1Logger.html#a94a9f9a4cbdb09b223a441154271f6ff" target="_top" xlink:title=" ">
<polygon fill="none" stroke="black" points="144,-38.5 144,-57.5 254,-57.5 254,-38.5 144,-38.5"/>
<text text-anchor="middle" x="199" y="-45.5" font-family="Helvetica,sans-Serif" font-size="10.00">bitlog::Logger::vlog</text>
</a>
</g>
</g>
<!-- Node1&#45;&gt;Node2 -->
<g id="edge1" class="edge">
<title>Node1&#45;&gt;Node2</title>
<path fill="none" stroke="midnightblue" d="M108.25,-48C116.49,-48 125.08,-48 133.54,-48"/>
<polygon fill="midnightblue" stroke="midnightblue" points="133.75,-51.5 143.75,-48 133.75,-44.5 133.75,-51.5"/>
</g>
<!-- Node3 -->
<g id="node3" class="node">
<title>Node3</title>
<g id="a_node3"><a xlink:href="classbitlog_1_1Logger.html#a3cfd5f364955408ebe829193602c8ec8" target="_top" xlink:title=" ">
<polygon fill="none" stroke="black" points="290,-76.5 290,-95.5 418,-95.5 418,-76.5 290,-76.5"/>
<text text-anchor="middle" x="354" y="-83.5" font-family="Helvetica,sans-Serif" font-size="10.00">bitlog::Logger::enabled</text>
</a>
</g>
</g>
<!-- Node2&#45;&gt;Node3 -->
<g id="edge2" class="edge">
<title>Node2&#45;&gt;Node3</title>
<path fill="none" stroke="midnightblue" d="M238.61,-57.59C258.71,-62.58 283.48,-68.73 304.82,-74.03"/>
<polygon fill="midnightblue" stroke="midnightblue" points="304.12,-77.47 314.67,-76.48 305.81,-70.67 304.12,-77.47"/>
</g>
<!-- Node4 -->
<g id="node4" class="node">
<title>Node4</title>
<g id="a_node4"><a xlink:href="classbitlog_1_1Logger.html#a255b30adf83d78dff5f540f36e8ae151" target="_top" xlink:title=" ">
<polygon fill="none" stroke="black" points="296,-38.5 296,-57.5 412,-57.5 412,-38.5 296,-38.5"/>
<text text-anchor="middle" x="354" y="-45.5" font-family="Helvetica,sans-Serif" font-size="10.00">bitlog::Logger::log_it</text>
</a>
</g>
</g>
<!-- Node2&#45;&gt;Node4 -->
<g id="edge3" class="edge">
<title>Node2&#45;&gt;Node4</title>
<path fill="none" stroke="midnightblue" d="M254.37,-48C264.59,-48 275.39,-48 285.94,-48"/>
<polygon fill="midnightblue" stroke="midnightblue" points="285.96,-51.5 295.96,-48 285.96,-44.5 285.96,-51.5"/>
</g>
<!-- Node5 -->
<g id="node5" class="node">
<title>Node5</title>
<g id="a_node5"><a xlink:href="namespacebitlog.html#addd7c99dd7949c781b7840f06810986a" target="_top" xlink:title=" ">
<polygon fill="none" stroke="black" points="309.5,-0.5 309.5,-19.5 398.5,-19.5 398.5,-0.5 309.5,-0.5"/>
<text text-anchor="middle" x="354" y="-7.5" font-family="Helvetica,sans-Serif" font-size="10.00">bitlog::vformat</text>
</a>
</g>
</g>
<!-- Node2&#45;&gt;Node5 -->
<g id="edge4" class="edge">
<title>Node2&#45;&gt;Node5</title>
<path fill="none" stroke="midnightblue" d="M238.61,-38.41C258.71,-33.42 283.48,-27.27 304.82,-21.97"/>
<polygon fill="midnightblue" stroke="midnightblue" points="305.81,-25.33 314.67,-19.52 304.12,-18.53 305.81,-25.33"/>
</g>
</g>
</svg>
