<?xml version="1.0" encoding="UTF-8" standalone="no"?>
<!DOCTYPE svg PUBLIC "-//W3C//DTD SVG 1.1//EN"
 "http://www.w3.org/Graphics/SVG/1.1/DTD/svg11.dtd">
<!-- Generated by graphviz version 2.43.0 (0)
 -->
<!-- Title: bitlog::Logger::fatal Pages: 1 -->
<svg width="430pt" height="104pt"
 viewBox="0.00 0.00 430.00 104.00" xmlns="http://www.w3.org/2000/svg" xmlns:xlink="http://www.w3.org/1999/xlink">
<g id="graph0" class="graph" transform="scale(1 1) rotate(0) translate(4 100)">
<title>bitlog::Logger::fatal</title>
<!-- Node1 -->
<g id="node1" class="node">
<title>Node1</title>
<g id="a_node1"><a xlink:title=" ">
<polygon fill="#bfbfbf" stroke="black" points="0,-38.5 0,-57.5 112,-57.5 112,-38.5 0,-38.5"/>
<text text-anchor="middle" x="56" y="-45.5" font-family="Helvetica,sans-Serif" font-size="10.00">bitlog::Logger::fatal</text>
</a>
</g>
</g>
<!-- Node2 -->
<g id="node2" class="node">
<title>Node2</title>
<g id="a_node2"><a xlink:href="classbitlog_1_1Logger.html#a94a9f9a4cbdb09b223a441154271f6ff" target="_top" xlink:title=" ">
<polygon fill="none" stroke="black" points="148,-38.5 148,-57.5 258,-57.5 258,-38.5 148,-38.5"/>
<text text-anchor="middle" x="203" y="-45.5" font-family="Helvetica,sans-Serif" font-size="10.00">bitlog::Logger::vlog</text>
</a>
</g>
</g>
<!-- Node1&#45;&gt;Node2 -->
<g id="edge1" class="edge">
<title>Node1&#45;&gt;Node2</title>
<path fill="none" stroke="midnightblue" d="M112.23,-48C120.54,-48 129.17,-48 137.65,-48"/>
<polygon fill="midnightblue" stroke="midnightblue" points="137.88,-51.5 147.88,-48 137.88,-44.5 137.88,-51.5"/>
</g>
<!-- Node3 -->
<g id="node3" class="node">
<title>Node3</title>
<g id="a_node3"><a xlink:href="classbitlog_1_1Logger.html#a3cfd5f364955408ebe829193602c8ec8" target="_top" xlink:title=" ">
<polygon fill="none" stroke="black" points="294,-76.5 294,-95.5 422,-95.5 422,-76.5 294,-76.5"/>
<text text-anchor="middle" x="358" y="-83.5" font-family="Helvetica,sans-Serif" font-size="10.00">bitlog::Logger::enabled</text>
</a>
</g>
</g>
<!-- Node2&#45;&gt;Node3 -->
<g id="edge2" class="edge">
<title>Node2&#45;&gt;Node3</title>
<path fill="none" stroke="midnightblue" d="M242.61,-57.59C262.71,-62.58 287.48,-68.73 308.82,-74.03"/>
<polygon fill="midnightblue" stroke="midnightblue" points="308.12,-77.47 318.67,-76.48 309.81,-70.67 308.12,-77.47"/>
</g>
<!-- Node4 -->
<g id="node4" class="node">
<title>Node4</title>
<g id="a_node4"><a xlink:href="classbitlog_1_1Logger.html#a255b30adf83d78dff5f540f36e8ae151" target="_top" xlink:title=" ">
<polygon fill="none" stroke="black" points="300,-38.5 300,-57.5 416,-57.5 416,-38.5 300,-38.5"/>
<text text-anchor="middle" x="358" y="-45.5" font-family="Helvetica,sans-Serif" font-size="10.00">bitlog::Logger::log_it</text>
</a>
</g>
</g>
<!-- Node2&#45;&gt;Node4 -->
<g id="edge3" class="edge">
<title>Node2&#45;&gt;Node4</title>
<path fill="none" stroke="midnightblue" d="M258.37,-48C268.59,-48 279.39,-48 289.94,-48"/>
<polygon fill="midnightblue" stroke="midnightblue" points="289.96,-51.5 299.96,-48 289.96,-44.5 289.96,-51.5"/>
</g>
<!-- Node5 -->
<g id="node5" class="node">
<title>Node5</title>
<g id="a_node5"><a xlink:href="namespacebitlog.html#addd7c99dd7949c781b7840f06810986a" target="_top" xlink:title=" ">
<polygon fill="none" stroke="black" points="313.5,-0.5 313.5,-19.5 402.5,-19.5 402.5,-0.5 313.5,-0.5"/>
<text text-anchor="middle" x="358" y="-7.5" font-family="Helvetica,sans-Serif" font-size="10.00">bitlog::vformat</text>
</a>
</g>
</g>
<!-- Node2&#45;&gt;Node5 -->
<g id="edge4" class="edge">
<title>Node2&#45;&gt;Node5</title>
<path fill="none" stroke="midnightblue" d="M242.61,-38.41C262.71,-33.42 287.48,-27.27 308.82,-21.97"/>
<polygon fill="midnightblue" stroke="midnightblue" points="309.81,-25.33 318.67,-19.52 308.12,-18.53 309.81,-25.33"/>
</g>
</g>
</svg>
