<?xml version="1.0" encoding="UTF-8" standalone="no"?>
<!DOCTYPE svg PUBLIC "-//W3C//DTD SVG 1.1//EN"
 "http://www.w3.org/Graphics/SVG/1.1/DTD/svg11.dtd">
<!-- Generated by graphviz version 2.43.0 (0)
 -->
<!-- Title: bitlog::Logger::warn Pages: 1 -->
<svg width="431pt" height="104pt"
 viewBox="0.00 0.00 431.00 104.00" xmlns="http://www.w3.org/2000/svg" xmlns:xlink="http://www.w3.org/1999/xlink">
<g id="graph0" class="graph" transform="scale(1 1) rotate(0) translate(4 100)">
<title>bitlog::Logger::warn</title>
<!-- Node1 -->
<g id="node1" class="node">
<title>Node1</title>
<g id="a_node1"><a xlink:title=" ">
<polygon fill="#bfbfbf" stroke="black" points="0,-38.5 0,-57.5 113,-57.5 113,-38.5 0,-38.5"/>
<text text-anchor="middle" x="56.5" y="-45.5" font-family="Helvetica,sans-Serif" font-size="10.00">bitlog::Logger::warn</text>
</a>
</g>
</g>
<!-- Node2 -->
<g id="node2" class="node">
<title>Node2</title>
<g id="a_node2"><a xlink:href="classbitlog_1_1Logger.html#a94a9f9a4cbdb09b223a441154271f6ff" target="_top" xlink:title=" ">
<polygon fill="none" stroke="black" points="149,-38.5 149,-57.5 259,-57.5 259,-38.5 149,-38.5"/>
<text text-anchor="middle" x="204" y="-45.5" font-family="Helvetica,sans-Serif" font-size="10.00">bitlog::Logger::vlog</text>
</a>
</g>
</g>
<!-- Node1&#45;&gt;Node2 -->
<g id="edge1" class="edge">
<title>Node1&#45;&gt;Node2</title>
<path fill="none" stroke="midnightblue" d="M113.34,-48C121.66,-48 130.29,-48 138.76,-48"/>
<polygon fill="midnightblue" stroke="midnightblue" points="138.99,-51.5 148.99,-48 138.99,-44.5 138.99,-51.5"/>
</g>
<!-- Node3 -->
<g id="node3" class="node">
<title>Node3</title>
<g id="a_node3"><a xlink:href="classbitlog_1_1Logger.html#a3cfd5f364955408ebe829193602c8ec8" target="_top" xlink:title=" ">
<polygon fill="none" stroke="black" points="295,-76.5 295,-95.5 423,-95.5 423,-76.5 295,-76.5"/>
<text text-anchor="middle" x="359" y="-83.5" font-family="Helvetica,sans-Serif" font-size="10.00">bitlog::Logger::enabled</text>
</a>
</g>
</g>
<!-- Node2&#45;&gt;Node3 -->
<g id="edge2" class="edge">
<title>Node2&#45;&gt;Node3</title>
<path fill="none" stroke="midnightblue" d="M243.61,-57.59C263.71,-62.58 288.48,-68.73 309.82,-74.03"/>
<polygon fill="midnightblue" stroke="midnightblue" points="309.12,-77.47 319.67,-76.48 310.81,-70.67 309.12,-77.47"/>
</g>
<!-- Node4 -->
<g id="node4" class="node">
<title>Node4</title>
<g id="a_node4"><a xlink:href="classbitlog_1_1Logger.html#a255b30adf83d78dff5f540f36e8ae151" target="_top" xlink:title=" ">
<polygon fill="none" stroke="black" points="301,-38.5 301,-57.5 417,-57.5 417,-38.5 301,-38.5"/>
<text text-anchor="middle" x="359" y="-45.5" font-family="Helvetica,sans-Serif" font-size="10.00">bitlog::Logger::log_it</text>
</a>
</g>
</g>
<!-- Node2&#45;&gt;Node4 -->
<g id="edge3" class="edge">
<title>Node2&#45;&gt;Node4</title>
<path fill="none" stroke="midnightblue" d="M259.37,-48C269.59,-48 280.39,-48 290.94,-48"/>
<polygon fill="midnightblue" stroke="midnightblue" points="290.96,-51.5 300.96,-48 290.96,-44.5 290.96,-51.5"/>
</g>
<!-- Node5 -->
<g id="node5" class="node">
<title>Node5</title>
<g id="a_node5"><a xlink:href="namespacebitlog.html#addd7c99dd7949c781b7840f06810986a" target="_top" xlink:title=" ">
<polygon fill="none" stroke="black" points="314.5,-0.5 314.5,-19.5 403.5,-19.5 403.5,-0.5 314.5,-0.5"/>
<text text-anchor="middle" x="359" y="-7.5" font-family="Helvetica,sans-Serif" font-size="10.00">bitlog::vformat</text>
</a>
</g>
</g>
<!-- Node2&#45;&gt;Node5 -->
<g id="edge4" class="edge">
<title>Node2&#45;&gt;Node5</title>
<path fill="none" stroke="midnightblue" d="M243.61,-38.41C263.71,-33.42 288.48,-27.27 309.82,-21.97"/>
<polygon fill="midnightblue" stroke="midnightblue" points="310.81,-25.33 319.67,-19.52 309.12,-18.53 310.81,-25.33"/>
</g>
</g>
</svg>
