<?xml version="1.0" encoding="UTF-8" standalone="no"?>
<!DOCTYPE svg PUBLIC "-//W3C//DTD SVG 1.1//EN"
 "http://www.w3.org/Graphics/SVG/1.1/DTD/svg11.dtd">
<!-- Generated by graphviz version 2.43.0 (0)
 -->
<!-- Title: bitlog::Logger::enabled Pages: 1 -->
<svg width="437pt" height="180pt"
 viewBox="0.00 0.00 437.00 180.00" xmlns="http://www.w3.org/2000/svg" xmlns:xlink="http://www.w3.org/1999/xlink">
<g id="graph0" class="graph" transform="scale(1 1) rotate(0) translate(4 176)">
<title>bitlog::Logger::enabled</title>
<!-- Node1 -->
<g id="node1" class="node">
<title>Node1</title>
<g id="a_node1"><a xlink:title=" ">
<polygon fill="#bfbfbf" stroke="black" points="301,-76.5 301,-95.5 429,-95.5 429,-76.5 301,-76.5"/>
<text text-anchor="middle" x="365" y="-83.5" font-family="Helvetica,sans-Serif" font-size="10.00">bitlog::Logger::enabled</text>
</a>
</g>
</g>
<!-- Node2 -->
<g id="node2" class="node">
<title>Node2</title>
<g id="a_node2"><a xlink:href="classbitlog_1_1Logger.html#a94a9f9a4cbdb09b223a441154271f6ff" target="_top" xlink:title=" ">
<polygon fill="none" stroke="black" points="155,-76.5 155,-95.5 265,-95.5 265,-76.5 155,-76.5"/>
<text text-anchor="middle" x="210" y="-83.5" font-family="Helvetica,sans-Serif" font-size="10.00">bitlog::Logger::vlog</text>
</a>
</g>
</g>
<!-- Node1&#45;&gt;Node2 -->
<g id="edge1" class="edge">
<title>Node1&#45;&gt;Node2</title>
<path fill="none" stroke="midnightblue" d="M290.81,-86C282.17,-86 273.49,-86 265.18,-86"/>
<polygon fill="midnightblue" stroke="midnightblue" points="290.89,-89.5 300.89,-86 290.89,-82.5 290.89,-89.5"/>
</g>
<!-- Node3 -->
<g id="node3" class="node">
<title>Node3</title>
<g id="a_node3"><a xlink:href="classbitlog_1_1Logger.html#a0afb71be65653a2decfde41d6ab60eff" target="_top" xlink:title=" ">
<polygon fill="none" stroke="black" points="0,-152.5 0,-171.5 119,-171.5 119,-152.5 0,-152.5"/>
<text text-anchor="middle" x="59.5" y="-159.5" font-family="Helvetica,sans-Serif" font-size="10.00">bitlog::Logger::debug</text>
</a>
</g>
</g>
<!-- Node2&#45;&gt;Node3 -->
<g id="edge2" class="edge">
<title>Node2&#45;&gt;Node3</title>
<path fill="none" stroke="midnightblue" d="M187.75,-101.62C170.04,-114.09 143.8,-131.34 119,-143 111.37,-146.59 102.87,-149.77 94.78,-152.46"/>
<polygon fill="midnightblue" stroke="midnightblue" points="190.08,-104.25 196.18,-95.59 186.01,-98.56 190.08,-104.25"/>
</g>
<!-- Node4 -->
<g id="node4" class="node">
<title>Node4</title>
<g id="a_node4"><a xlink:href="classbitlog_1_1Logger.html#ab33e623c6e004d4659d8abd924e20da3" target="_top" xlink:title=" ">
<polygon fill="none" stroke="black" points="3,-114.5 3,-133.5 116,-133.5 116,-114.5 3,-114.5"/>
<text text-anchor="middle" x="59.5" y="-121.5" font-family="Helvetica,sans-Serif" font-size="10.00">bitlog::Logger::error</text>
</a>
</g>
</g>
<!-- Node2&#45;&gt;Node4 -->
<g id="edge3" class="edge">
<title>Node2&#45;&gt;Node4</title>
<path fill="none" stroke="midnightblue" d="M161.67,-98.11C140.99,-103.4 117.08,-109.52 97.7,-114.48"/>
<polygon fill="midnightblue" stroke="midnightblue" points="162.71,-101.46 171.53,-95.59 160.97,-94.68 162.71,-101.46"/>
</g>
<!-- Node5 -->
<g id="node5" class="node">
<title>Node5</title>
<g id="a_node5"><a xlink:href="classbitlog_1_1Logger.html#a1bc71a7271bae904cf23a2b401561e0e" target="_top" xlink:title=" ">
<polygon fill="none" stroke="black" points="3.5,-76.5 3.5,-95.5 115.5,-95.5 115.5,-76.5 3.5,-76.5"/>
<text text-anchor="middle" x="59.5" y="-83.5" font-family="Helvetica,sans-Serif" font-size="10.00">bitlog::Logger::fatal</text>
</a>
</g>
</g>
<!-- Node2&#45;&gt;Node5 -->
<g id="edge4" class="edge">
<title>Node2&#45;&gt;Node5</title>
<path fill="none" stroke="midnightblue" d="M144.95,-86C135.22,-86 125.26,-86 115.74,-86"/>
<polygon fill="midnightblue" stroke="midnightblue" points="144.97,-89.5 154.97,-86 144.97,-82.5 144.97,-89.5"/>
</g>
<!-- Node6 -->
<g id="node6" class="node">
<title>Node6</title>
<g id="a_node6"><a xlink:href="classbitlog_1_1Logger.html#a1a255f40425266527c4199a91edc9edc" target="_top" xlink:title=" ">
<polygon fill="none" stroke="black" points="5.5,-38.5 5.5,-57.5 113.5,-57.5 113.5,-38.5 5.5,-38.5"/>
<text text-anchor="middle" x="59.5" y="-45.5" font-family="Helvetica,sans-Serif" font-size="10.00">bitlog::Logger::info</text>
</a>
</g>
</g>
<!-- Node2&#45;&gt;Node6 -->
<g id="edge5" class="edge">
<title>Node2&#45;&gt;Node6</title>
<path fill="none" stroke="midnightblue" d="M161.67,-73.89C140.99,-68.6 117.08,-62.48 97.7,-57.52"/>
<polygon fill="midnightblue" stroke="midnightblue" points="160.97,-77.32 171.53,-76.41 162.71,-70.54 160.97,-77.32"/>
</g>
<!-- Node7 -->
<g id="node7" class="node">
<title>Node7</title>
<g id="a_node7"><a xlink:href="classbitlog_1_1Logger.html#a26f32e8b4f4c3c0b67c1fb74c7eb0436" target="_top" xlink:title=" ">
<polygon fill="none" stroke="black" points="3,-0.5 3,-19.5 116,-19.5 116,-0.5 3,-0.5"/>
<text text-anchor="middle" x="59.5" y="-7.5" font-family="Helvetica,sans-Serif" font-size="10.00">bitlog::Logger::warn</text>
</a>
</g>
</g>
<!-- Node2&#45;&gt;Node7 -->
<g id="edge6" class="edge">
<title>Node2&#45;&gt;Node7</title>
<path fill="none" stroke="midnightblue" d="M187.75,-70.38C170.04,-57.91 143.8,-40.66 119,-29 111.37,-25.41 102.87,-22.23 94.78,-19.54"/>
<polygon fill="midnightblue" stroke="midnightblue" points="186.01,-73.44 196.18,-76.41 190.08,-67.75 186.01,-73.44"/>
</g>
</g>
</svg>
