<?xml version="1.0" encoding="UTF-8" standalone="no"?>
<!DOCTYPE svg PUBLIC "-//W3C//DTD SVG 1.1//EN"
 "http://www.w3.org/Graphics/SVG/1.1/DTD/svg11.dtd">
<!-- Generated by graphviz version 2.43.0 (0)
 -->
<!-- Title: bitlog::Logger::debug Pages: 1 -->
<svg width="437pt" height="104pt"
 viewBox="0.00 0.00 437.00 104.00" xmlns="http://www.w3.org/2000/svg" xmlns:xlink="http://www.w3.org/1999/xlink">
<g id="graph0" class="graph" transform="scale(1 1) rotate(0) translate(4 100)">
<title>bitlog::Logger::debug</title>
<!-- Node1 -->
<g id="node1" class="node">
<title>Node1</title>
<g id="a_node1"><a xlink:title=" ">
<polygon fill="#bfbfbf" stroke="black" points="0,-38.5 0,-57.5 119,-57.5 119,-38.5 0,-38.5"/>
<text text-anchor="middle" x="59.5" y="-45.5" font-family="Helvetica,sans-Serif" font-size="10.00">bitlog::Logger::debug</text>
</a>
</g>
</g>
<!-- Node2 -->
<g id="node2" class="node">
<title>Node2</title>
<g id="a_node2"><a xlink:href="classbitlog_1_1Logger.html#a94a9f9a4cbdb09b223a441154271f6ff" target="_top" xlink:title=" ">
<polygon fill="none" stroke="black" points="155,-38.5 155,-57.5 265,-57.5 265,-38.5 155,-38.5"/>
<text text-anchor="middle" x="210" y="-45.5" font-family="Helvetica,sans-Serif" font-size="10.00">bitlog::Logger::vlog</text>
</a>
</g>
</g>
<!-- Node1&#45;&gt;Node2 -->
<g id="edge1" class="edge">
<title>Node1&#45;&gt;Node2</title>
<path fill="none" stroke="midnightblue" d="M119.19,-48C127.49,-48 136.06,-48 144.46,-48"/>
<polygon fill="midnightblue" stroke="midnightblue" points="144.6,-51.5 154.6,-48 144.6,-44.5 144.6,-51.5"/>
</g>
<!-- Node3 -->
<g id="node3" class="node">
<title>Node3</title>
<g id="a_node3"><a xlink:href="classbitlog_1_1Logger.html#a3cfd5f364955408ebe829193602c8ec8" target="_top" xlink:title=" ">
<polygon fill="none" stroke="black" points="301,-76.5 301,-95.5 429,-95.5 429,-76.5 301,-76.5"/>
<text text-anchor="middle" x="365" y="-83.5" font-family="Helvetica,sans-Serif" font-size="10.00">bitlog::Logger::enabled</text>
</a>
</g>
</g>
<!-- Node2&#45;&gt;Node3 -->
<g id="edge2" class="edge">
<title>Node2&#45;&gt;Node3</title>
<path fill="none" stroke="midnightblue" d="M249.61,-57.59C269.71,-62.58 294.48,-68.73 315.82,-74.03"/>
<polygon fill="midnightblue" stroke="midnightblue" points="315.12,-77.47 325.67,-76.48 316.81,-70.67 315.12,-77.47"/>
</g>
<!-- Node4 -->
<g id="node4" class="node">
<title>Node4</title>
<g id="a_node4"><a xlink:href="classbitlog_1_1Logger.html#a255b30adf83d78dff5f540f36e8ae151" target="_top" xlink:title=" ">
<polygon fill="none" stroke="black" points="307,-38.5 307,-57.5 423,-57.5 423,-38.5 307,-38.5"/>
<text text-anchor="middle" x="365" y="-45.5" font-family="Helvetica,sans-Serif" font-size="10.00">bitlog::Logger::log_it</text>
</a>
</g>
</g>
<!-- Node2&#45;&gt;Node4 -->
<g id="edge3" class="edge">
<title>Node2&#45;&gt;Node4</title>
<path fill="none" stroke="midnightblue" d="M265.37,-48C275.59,-48 286.39,-48 296.94,-48"/>
<polygon fill="midnightblue" stroke="midnightblue" points="296.96,-51.5 306.96,-48 296.96,-44.5 296.96,-51.5"/>
</g>
<!-- Node5 -->
<g id="node5" class="node">
<title>Node5</title>
<g id="a_node5"><a xlink:href="namespacebitlog.html#addd7c99dd7949c781b7840f06810986a" target="_top" xlink:title=" ">
<polygon fill="none" stroke="black" points="320.5,-0.5 320.5,-19.5 409.5,-19.5 409.5,-0.5 320.5,-0.5"/>
<text text-anchor="middle" x="365" y="-7.5" font-family="Helvetica,sans-Serif" font-size="10.00">bitlog::vformat</text>
</a>
</g>
</g>
<!-- Node2&#45;&gt;Node5 -->
<g id="edge4" class="edge">
<title>Node2&#45;&gt;Node5</title>
<path fill="none" stroke="midnightblue" d="M249.61,-38.41C269.71,-33.42 294.48,-27.27 315.82,-21.97"/>
<polygon fill="midnightblue" stroke="midnightblue" points="316.81,-25.33 325.67,-19.52 315.12,-18.53 316.81,-25.33"/>
</g>
</g>
</svg>
