<?xml version="1.0" encoding="UTF-8" standalone="no"?>
<!DOCTYPE svg PUBLIC "-//W3C//DTD SVG 1.1//EN"
 "http://www.w3.org/Graphics/SVG/1.1/DTD/svg11.dtd">
<!-- Generated by graphviz version 2.43.0 (0)
 -->
<!-- Title: bitlog::Formatter::format Pages: 1 -->
<svg width="259pt" height="78pt"
 viewBox="0.00 0.00 259.00 77.50" xmlns="http://www.w3.org/2000/svg" xmlns:xlink="http://www.w3.org/1999/xlink">
<g id="graph0" class="graph" transform="scale(1 1) rotate(0) translate(4 73.5)">
<title>bitlog::Formatter::format</title>
<!-- Node1 -->
<g id="node1" class="node">
<title>Node1</title>
<g id="a_node1"><a xlink:title=" ">
<polygon fill="#bfbfbf" stroke="black" points="0,-17 0,-47 104,-47 104,-17 0,-17"/>
<text text-anchor="start" x="8" y="-35" font-family="Helvetica,sans-Serif" font-size="10.00">bitlog::Formatter::</text>
<text text-anchor="middle" x="52" y="-24" font-family="Helvetica,sans-Serif" font-size="10.00">format</text>
</a>
</g>
</g>
<!-- Node2 -->
<g id="node2" class="node">
<title>Node2</title>
<g id="a_node2"><a xlink:href="namespacebitlog.html#a2846a7a59f75df9aaa5713051edf1dc2" target="_top" xlink:title=" ">
<polygon fill="none" stroke="black" points="140,-39 140,-69 251,-69 251,-39 140,-39"/>
<text text-anchor="start" x="148" y="-57" font-family="Helvetica,sans-Serif" font-size="10.00">bitlog::format_time</text>
<text text-anchor="middle" x="195.5" y="-46" font-family="Helvetica,sans-Serif" font-size="10.00">_point</text>
</a>
</g>
</g>
<!-- Node1&#45;&gt;Node2 -->
<g id="edge1" class="edge">
<title>Node1&#45;&gt;Node2</title>
<path fill="none" stroke="midnightblue" d="M104.08,-39.94C112.39,-41.23 121.09,-42.59 129.67,-43.92"/>
<polygon fill="midnightblue" stroke="midnightblue" points="129.25,-47.4 139.67,-45.47 130.32,-40.48 129.25,-47.4"/>
</g>
<!-- Node3 -->
<g id="node3" class="node">
<title>Node3</title>
<g id="a_node3"><a xlink:href="namespacebitlog.html#a1e90addbb0520d421ab25a7065281625" target="_top" xlink:title=" ">
<polygon fill="none" stroke="black" points="149,-0.5 149,-19.5 242,-19.5 242,-0.5 149,-0.5"/>
<text text-anchor="middle" x="195.5" y="-7.5" font-family="Helvetica,sans-Serif" font-size="10.00">bitlog::to_string</text>
</a>
</g>
</g>
<!-- Node1&#45;&gt;Node3 -->
<g id="edge2" class="edge">
<title>Node1&#45;&gt;Node3</title>
<path fill="none" stroke="midnightblue" d="M104.08,-24.06C115.24,-22.32 127.1,-20.48 138.43,-18.72"/>
<polygon fill="midnightblue" stroke="midnightblue" points="139.31,-22.12 148.66,-17.13 138.24,-15.21 139.31,-22.12"/>
</g>
</g>
</svg>
