<?xml version="1.0" encoding="UTF-8" standalone="no"?>
<!DOCTYPE svg PUBLIC "-//W3C//DTD SVG 1.1//EN"
 "http://www.w3.org/Graphics/SVG/1.1/DTD/svg11.dtd">
<!-- Generated by graphviz version 2.43.0 (0)
 -->
<!-- Title: include/bitlog/formatter.hpp Pages: 1 -->
<svg width="316pt" height="196pt"
 viewBox="0.00 0.00 316.00 196.00" xmlns="http://www.w3.org/2000/svg" xmlns:xlink="http://www.w3.org/1999/xlink">
<g id="graph0" class="graph" transform="scale(1 1) rotate(0) translate(4 192)">
<title>include/bitlog/formatter.hpp</title>
<!-- Node1 -->
<g id="node1" class="node">
<title>Node1</title>
<g id="a_node1"><a xlink:title=" ">
<polygon fill="#bfbfbf" stroke="black" points="113,-168.5 113,-187.5 265,-187.5 265,-168.5 113,-168.5"/>
<text text-anchor="middle" x="189" y="-175.5" font-family="Helvetica,sans-Serif" font-size="10.00">include/bitlog/formatter.hpp</text>
</a>
</g>
</g>
<!-- Node2 -->
<g id="node2" class="node">
<title>Node2</title>
<g id="a_node2"><a xlink:href="logger_8hpp.html" target="_top" xlink:title=" ">
<polygon fill="none" stroke="black" points="52.5,-112.5 52.5,-131.5 189.5,-131.5 189.5,-112.5 52.5,-112.5"/>
<text text-anchor="middle" x="121" y="-119.5" font-family="Helvetica,sans-Serif" font-size="10.00">include/bitlog/logger.hpp</text>
</a>
</g>
</g>
<!-- Node1&#45;&gt;Node2 -->
<g id="edge1" class="edge">
<title>Node1&#45;&gt;Node2</title>
<path fill="none" stroke="midnightblue" d="M170.24,-162.1C158,-152.38 142.44,-140.03 132.12,-131.83"/>
<polygon fill="midnightblue" stroke="midnightblue" points="168.07,-164.85 178.07,-168.32 172.42,-159.36 168.07,-164.85"/>
</g>
<!-- Node6 -->
<g id="node6" class="node">
<title>Node6</title>
<g id="a_node6"><a xlink:href="formatter_8cpp.html" target="_top" xlink:title=" ">
<polygon fill="none" stroke="black" points="208,-112.5 208,-131.5 308,-131.5 308,-112.5 208,-112.5"/>
<text text-anchor="middle" x="258" y="-119.5" font-family="Helvetica,sans-Serif" font-size="10.00">src/formatter.cpp</text>
</a>
</g>
</g>
<!-- Node1&#45;&gt;Node6 -->
<g id="edge5" class="edge">
<title>Node1&#45;&gt;Node6</title>
<path fill="none" stroke="midnightblue" d="M208.04,-162.1C220.46,-152.38 236.24,-140.03 246.71,-131.83"/>
<polygon fill="midnightblue" stroke="midnightblue" points="205.8,-159.4 200.09,-168.32 210.12,-164.92 205.8,-159.4"/>
</g>
<!-- Node3 -->
<g id="node3" class="node">
<title>Node3</title>
<g id="a_node3"><a xlink:href="bitlog_8h.html" target="_top" xlink:title=" ">
<polygon fill="none" stroke="black" points="0,-56.5 0,-75.5 122,-75.5 122,-56.5 0,-56.5"/>
<text text-anchor="middle" x="61" y="-63.5" font-family="Helvetica,sans-Serif" font-size="10.00">include/bitlog/bitlog.h</text>
</a>
</g>
</g>
<!-- Node2&#45;&gt;Node3 -->
<g id="edge2" class="edge">
<title>Node2&#45;&gt;Node3</title>
<path fill="none" stroke="midnightblue" d="M103.82,-105.54C93.12,-95.91 79.74,-83.87 70.82,-75.83"/>
<polygon fill="midnightblue" stroke="midnightblue" points="101.59,-108.24 111.36,-112.32 106.27,-103.03 101.59,-108.24"/>
</g>
<!-- Node5 -->
<g id="node5" class="node">
<title>Node5</title>
<g id="a_node5"><a xlink:href="logger_8cpp.html" target="_top" xlink:title=" ">
<polygon fill="none" stroke="black" points="140,-56.5 140,-75.5 224,-75.5 224,-56.5 140,-56.5"/>
<text text-anchor="middle" x="182" y="-63.5" font-family="Helvetica,sans-Serif" font-size="10.00">src/logger.cpp</text>
</a>
</g>
</g>
<!-- Node2&#45;&gt;Node5 -->
<g id="edge4" class="edge">
<title>Node2&#45;&gt;Node5</title>
<path fill="none" stroke="midnightblue" d="M138.47,-105.54C149.34,-95.91 162.94,-83.87 172.02,-75.83"/>
<polygon fill="midnightblue" stroke="midnightblue" points="135.97,-103.07 130.8,-112.32 140.61,-108.32 135.97,-103.07"/>
</g>
<!-- Node4 -->
<g id="node4" class="node">
<title>Node4</title>
<g id="a_node4"><a xlink:href="bitlog_8cpp.html" target="_top" xlink:title=" ">
<polygon fill="none" stroke="black" points="20,-0.5 20,-19.5 102,-19.5 102,-0.5 20,-0.5"/>
<text text-anchor="middle" x="61" y="-7.5" font-family="Helvetica,sans-Serif" font-size="10.00">src/bitlog.cpp</text>
</a>
</g>
</g>
<!-- Node3&#45;&gt;Node4 -->
<g id="edge3" class="edge">
<title>Node3&#45;&gt;Node4</title>
<path fill="none" stroke="midnightblue" d="M61,-45.8C61,-36.91 61,-26.78 61,-19.75"/>
<polygon fill="midnightblue" stroke="midnightblue" points="57.5,-46.08 61,-56.08 64.5,-46.08 57.5,-46.08"/>
</g>
</g>
</svg>
