<?xml version="1.0" encoding="UTF-8" standalone="no"?>
<!DOCTYPE svg PUBLIC "-//W3C//DTD SVG 1.1//EN"
 "http://www.w3.org/Graphics/SVG/1.1/DTD/svg11.dtd">
<!-- Generated by graphviz version 2.43.0 (0)
 -->
<!-- Title: src/formatter.cpp Pages: 1 -->
<svg width="391pt" height="196pt"
 viewBox="0.00 0.00 391.00 196.00" xmlns="http://www.w3.org/2000/svg" xmlns:xlink="http://www.w3.org/1999/xlink">
<g id="graph0" class="graph" transform="scale(1 1) rotate(0) translate(4 192)">
<title>src/formatter.cpp</title>
<!-- Node1 -->
<g id="node1" class="node">
<title>Node1</title>
<g id="a_node1"><a xlink:title=" ">
<polygon fill="#bfbfbf" stroke="black" points="120,-168.5 120,-187.5 220,-187.5 220,-168.5 120,-168.5"/>
<text text-anchor="middle" x="170" y="-175.5" font-family="Helvetica,sans-Serif" font-size="10.00">src/formatter.cpp</text>
</a>
</g>
</g>
<!-- Node2 -->
<g id="node2" class="node">
<title>Node2</title>
<g id="a_node2"><a xlink:title=" ">
<polygon fill="none" stroke="#bfbfbf" points="0,-112.5 0,-131.5 56,-131.5 56,-112.5 0,-112.5"/>
<text text-anchor="middle" x="28" y="-119.5" font-family="Helvetica,sans-Serif" font-size="10.00">iomanip</text>
</a>
</g>
</g>
<!-- Node1&#45;&gt;Node2 -->
<g id="edge1" class="edge">
<title>Node1&#45;&gt;Node2</title>
<path fill="none" stroke="midnightblue" d="M147.5,-168.44C123.92,-159.48 86.68,-145.31 60.04,-135.18"/>
<polygon fill="midnightblue" stroke="midnightblue" points="60.99,-131.8 50.4,-131.52 58.5,-138.34 60.99,-131.8"/>
</g>
<!-- Node3 -->
<g id="node3" class="node">
<title>Node3</title>
<g id="a_node3"><a xlink:title=" ">
<polygon fill="none" stroke="#bfbfbf" points="74,-112.5 74,-131.5 130,-131.5 130,-112.5 74,-112.5"/>
<text text-anchor="middle" x="102" y="-119.5" font-family="Helvetica,sans-Serif" font-size="10.00">sstream</text>
</a>
</g>
</g>
<!-- Node1&#45;&gt;Node3 -->
<g id="edge2" class="edge">
<title>Node1&#45;&gt;Node3</title>
<path fill="none" stroke="midnightblue" d="M159.07,-168.32C148.83,-160.18 133.28,-147.84 121,-138.09"/>
<polygon fill="midnightblue" stroke="midnightblue" points="123.13,-135.31 113.12,-131.83 118.78,-140.79 123.13,-135.31"/>
</g>
<!-- Node4 -->
<g id="node4" class="node">
<title>Node4</title>
<g id="a_node4"><a xlink:title=" ">
<polygon fill="none" stroke="#bfbfbf" points="148,-112.5 148,-131.5 192,-131.5 192,-112.5 148,-112.5"/>
<text text-anchor="middle" x="170" y="-119.5" font-family="Helvetica,sans-Serif" font-size="10.00">ctime</text>
</a>
</g>
</g>
<!-- Node1&#45;&gt;Node4 -->
<g id="edge3" class="edge">
<title>Node1&#45;&gt;Node4</title>
<path fill="none" stroke="midnightblue" d="M170,-168.08C170,-161.01 170,-150.86 170,-141.99"/>
<polygon fill="midnightblue" stroke="midnightblue" points="173.5,-141.75 170,-131.75 166.5,-141.75 173.5,-141.75"/>
</g>
<!-- Node5 -->
<g id="node5" class="node">
<title>Node5</title>
<g id="a_node5"><a xlink:href="formatter_8hpp.html" target="_top" xlink:title=" ">
<polygon fill="none" stroke="black" points="210,-112.5 210,-131.5 324,-131.5 324,-112.5 210,-112.5"/>
<text text-anchor="middle" x="267" y="-119.5" font-family="Helvetica,sans-Serif" font-size="10.00">bitlog/formatter.hpp</text>
</a>
</g>
</g>
<!-- Node1&#45;&gt;Node5 -->
<g id="edge4" class="edge">
<title>Node1&#45;&gt;Node5</title>
<path fill="none" stroke="midnightblue" d="M185.58,-168.32C201,-159.74 224.81,-146.49 242.71,-136.52"/>
<polygon fill="midnightblue" stroke="midnightblue" points="244.42,-139.58 251.45,-131.65 241.01,-133.46 244.42,-139.58"/>
</g>
<!-- Node9 -->
<g id="node9" class="node">
<title>Node9</title>
<g id="a_node9"><a xlink:href="level_8hpp.html" target="_top" xlink:title=" ">
<polygon fill="none" stroke="black" points="321,-0.5 321,-19.5 383,-19.5 383,-0.5 321,-0.5"/>
<text text-anchor="middle" x="352" y="-7.5" font-family="Helvetica,sans-Serif" font-size="10.00">level.hpp</text>
</a>
</g>
</g>
<!-- Node1&#45;&gt;Node9 -->
<g id="edge10" class="edge">
<title>Node1&#45;&gt;Node9</title>
<path fill="none" stroke="midnightblue" d="M220.14,-176.81C256.8,-173.84 304.85,-163.54 333,-132 358.28,-103.67 357.54,-55.99 354.78,-29.73"/>
<polygon fill="midnightblue" stroke="midnightblue" points="358.22,-29.1 353.49,-19.62 351.28,-29.98 358.22,-29.1"/>
</g>
<!-- Node6 -->
<g id="node6" class="node">
<title>Node6</title>
<g id="a_node6"><a xlink:title=" ">
<polygon fill="none" stroke="#bfbfbf" points="190,-0.5 190,-19.5 234,-19.5 234,-0.5 190,-0.5"/>
<text text-anchor="middle" x="212" y="-7.5" font-family="Helvetica,sans-Serif" font-size="10.00">string</text>
</a>
</g>
</g>
<!-- Node5&#45;&gt;Node6 -->
<g id="edge5" class="edge">
<title>Node5&#45;&gt;Node6</title>
<path fill="none" stroke="midnightblue" d="M258.12,-112.5C249.73,-104 237.37,-90.18 230,-76 222.41,-61.39 217.73,-43.22 215.05,-29.8"/>
<polygon fill="midnightblue" stroke="midnightblue" points="218.47,-29.06 213.25,-19.84 211.58,-30.3 218.47,-29.06"/>
</g>
<!-- Node7 -->
<g id="node7" class="node">
<title>Node7</title>
<g id="a_node7"><a xlink:href="message_8hpp.html" target="_top" xlink:title=" ">
<polygon fill="none" stroke="black" points="239,-56.5 239,-75.5 321,-75.5 321,-56.5 239,-56.5"/>
<text text-anchor="middle" x="280" y="-63.5" font-family="Helvetica,sans-Serif" font-size="10.00">message.hpp</text>
</a>
</g>
</g>
<!-- Node5&#45;&gt;Node7 -->
<g id="edge6" class="edge">
<title>Node5&#45;&gt;Node7</title>
<path fill="none" stroke="midnightblue" d="M269.15,-112.08C270.87,-104.93 273.35,-94.64 275.5,-85.69"/>
<polygon fill="midnightblue" stroke="midnightblue" points="278.96,-86.29 277.89,-75.75 272.15,-84.65 278.96,-86.29"/>
</g>
<!-- Node7&#45;&gt;Node6 -->
<g id="edge7" class="edge">
<title>Node7&#45;&gt;Node6</title>
<path fill="none" stroke="midnightblue" d="M269.07,-56.32C258.83,-48.18 243.28,-35.84 231,-26.09"/>
<polygon fill="midnightblue" stroke="midnightblue" points="233.13,-23.31 223.12,-19.83 228.78,-28.79 233.13,-23.31"/>
</g>
<!-- Node8 -->
<g id="node8" class="node">
<title>Node8</title>
<g id="a_node8"><a xlink:title=" ">
<polygon fill="none" stroke="#bfbfbf" points="253,-0.5 253,-19.5 303,-19.5 303,-0.5 253,-0.5"/>
<text text-anchor="middle" x="278" y="-7.5" font-family="Helvetica,sans-Serif" font-size="10.00">chrono</text>
</a>
</g>
</g>
<!-- Node7&#45;&gt;Node8 -->
<g id="edge8" class="edge">
<title>Node7&#45;&gt;Node8</title>
<path fill="none" stroke="midnightblue" d="M279.67,-56.08C279.41,-49.01 279.03,-38.86 278.7,-29.99"/>
<polygon fill="midnightblue" stroke="midnightblue" points="282.19,-29.61 278.32,-19.75 275.2,-29.87 282.19,-29.61"/>
</g>
<!-- Node7&#45;&gt;Node9 -->
<g id="edge9" class="edge">
<title>Node7&#45;&gt;Node9</title>
<path fill="none" stroke="midnightblue" d="M291.57,-56.32C302.42,-48.18 318.88,-35.84 331.88,-26.09"/>
<polygon fill="midnightblue" stroke="midnightblue" points="334.32,-28.63 340.22,-19.83 330.12,-23.03 334.32,-28.63"/>
</g>
</g>
</svg>
