<?xml version="1.0" encoding="UTF-8" standalone="no"?>
<!DOCTYPE svg PUBLIC "-//W3C//DTD SVG 1.1//EN"
 "http://www.w3.org/Graphics/SVG/1.1/DTD/svg11.dtd">
<!-- Generated by graphviz version 2.43.0 (0)
 -->
<!-- Title: include/bitlog/formatter.hpp Pages: 1 -->
<svg width="223pt" height="140pt"
 viewBox="0.00 0.00 223.00 140.00" xmlns="http://www.w3.org/2000/svg" xmlns:xlink="http://www.w3.org/1999/xlink">
<g id="graph0" class="graph" transform="scale(1 1) rotate(0) translate(4 136)">
<title>include/bitlog/formatter.hpp</title>
<!-- Node1 -->
<g id="node1" class="node">
<title>Node1</title>
<g id="a_node1"><a xlink:title=" ">
<polygon fill="#bfbfbf" stroke="black" points="0,-112.5 0,-131.5 152,-131.5 152,-112.5 0,-112.5"/>
<text text-anchor="middle" x="76" y="-119.5" font-family="Helvetica,sans-Serif" font-size="10.00">include/bitlog/formatter.hpp</text>
</a>
</g>
</g>
<!-- Node2 -->
<g id="node2" class="node">
<title>Node2</title>
<g id="a_node2"><a xlink:title=" ">
<polygon fill="none" stroke="#bfbfbf" points="22,-0.5 22,-19.5 66,-19.5 66,-0.5 22,-0.5"/>
<text text-anchor="middle" x="44" y="-7.5" font-family="Helvetica,sans-Serif" font-size="10.00">string</text>
</a>
</g>
</g>
<!-- Node1&#45;&gt;Node2 -->
<g id="edge1" class="edge">
<title>Node1&#45;&gt;Node2</title>
<path fill="none" stroke="midnightblue" d="M72.95,-112.43C69.8,-103.41 64.8,-88.79 61,-76 56.43,-60.61 51.86,-42.97 48.61,-29.96"/>
<polygon fill="midnightblue" stroke="midnightblue" points="51.92,-28.76 46.13,-19.88 45.12,-30.43 51.92,-28.76"/>
</g>
<!-- Node3 -->
<g id="node3" class="node">
<title>Node3</title>
<g id="a_node3"><a xlink:href="message_8hpp.html" target="_top" xlink:title=" ">
<polygon fill="none" stroke="black" points="70,-56.5 70,-75.5 152,-75.5 152,-56.5 70,-56.5"/>
<text text-anchor="middle" x="111" y="-63.5" font-family="Helvetica,sans-Serif" font-size="10.00">message.hpp</text>
</a>
</g>
</g>
<!-- Node1&#45;&gt;Node3 -->
<g id="edge2" class="edge">
<title>Node1&#45;&gt;Node3</title>
<path fill="none" stroke="midnightblue" d="M81.78,-112.08C86.67,-104.53 93.83,-93.49 99.83,-84.23"/>
<polygon fill="midnightblue" stroke="midnightblue" points="102.83,-86.05 105.33,-75.75 96.95,-82.24 102.83,-86.05"/>
</g>
<!-- Node3&#45;&gt;Node2 -->
<g id="edge3" class="edge">
<title>Node3&#45;&gt;Node2</title>
<path fill="none" stroke="midnightblue" d="M100.24,-56.32C90.23,-48.26 75.11,-36.08 63.07,-26.37"/>
<polygon fill="midnightblue" stroke="midnightblue" points="64.94,-23.38 54.96,-19.83 60.55,-28.83 64.94,-23.38"/>
</g>
<!-- Node4 -->
<g id="node4" class="node">
<title>Node4</title>
<g id="a_node4"><a xlink:title=" ">
<polygon fill="none" stroke="#bfbfbf" points="85,-0.5 85,-19.5 135,-19.5 135,-0.5 85,-0.5"/>
<text text-anchor="middle" x="110" y="-7.5" font-family="Helvetica,sans-Serif" font-size="10.00">chrono</text>
</a>
</g>
</g>
<!-- Node3&#45;&gt;Node4 -->
<g id="edge4" class="edge">
<title>Node3&#45;&gt;Node4</title>
<path fill="none" stroke="midnightblue" d="M110.83,-56.08C110.7,-49.01 110.52,-38.86 110.35,-29.99"/>
<polygon fill="midnightblue" stroke="midnightblue" points="113.85,-29.68 110.16,-19.75 106.85,-29.81 113.85,-29.68"/>
</g>
<!-- Node5 -->
<g id="node5" class="node">
<title>Node5</title>
<g id="a_node5"><a xlink:href="level_8hpp.html" target="_top" xlink:title=" ">
<polygon fill="none" stroke="black" points="153,-0.5 153,-19.5 215,-19.5 215,-0.5 153,-0.5"/>
<text text-anchor="middle" x="184" y="-7.5" font-family="Helvetica,sans-Serif" font-size="10.00">level.hpp</text>
</a>
</g>
</g>
<!-- Node3&#45;&gt;Node5 -->
<g id="edge5" class="edge">
<title>Node3&#45;&gt;Node5</title>
<path fill="none" stroke="midnightblue" d="M122.73,-56.32C133.84,-48.11 150.74,-35.6 163.98,-25.81"/>
<polygon fill="midnightblue" stroke="midnightblue" points="166.1,-28.59 172.06,-19.83 161.94,-22.97 166.1,-28.59"/>
</g>
</g>
</svg>
