<?xml version="1.0" encoding="UTF-8" standalone="no"?>
<!DOCTYPE svg PUBLIC "-//W3C//DTD SVG 1.1//EN"
 "http://www.w3.org/Graphics/SVG/1.1/DTD/svg11.dtd">
<!-- Generated by graphviz version 2.43.0 (0)
 -->
<!-- Title: include/bitlog/level.hpp Pages: 1 -->
<svg width="334pt" height="308pt"
 viewBox="0.00 0.00 334.00 308.00" xmlns="http://www.w3.org/2000/svg" xmlns:xlink="http://www.w3.org/1999/xlink">
<g id="graph0" class="graph" transform="scale(1 1) rotate(0) translate(4 304)">
<title>include/bitlog/level.hpp</title>
<!-- Node1 -->
<g id="node1" class="node">
<title>Node1</title>
<g id="a_node1"><a xlink:title=" ">
<polygon fill="#bfbfbf" stroke="black" points="124.5,-280.5 124.5,-299.5 255.5,-299.5 255.5,-280.5 124.5,-280.5"/>
<text text-anchor="middle" x="190" y="-287.5" font-family="Helvetica,sans-Serif" font-size="10.00">include/bitlog/level.hpp</text>
</a>
</g>
</g>
<!-- Node2 -->
<g id="node2" class="node">
<title>Node2</title>
<g id="a_node2"><a xlink:href="logger_8hpp.html" target="_top" xlink:title=" ">
<polygon fill="none" stroke="black" points="52.5,-112.5 52.5,-131.5 189.5,-131.5 189.5,-112.5 52.5,-112.5"/>
<text text-anchor="middle" x="121" y="-119.5" font-family="Helvetica,sans-Serif" font-size="10.00">include/bitlog/logger.hpp</text>
</a>
</g>
</g>
<!-- Node1&#45;&gt;Node2 -->
<g id="edge1" class="edge">
<title>Node1&#45;&gt;Node2</title>
<path fill="none" stroke="midnightblue" d="M146.87,-276.73C130.83,-269.84 114.29,-259.43 105,-244 82.81,-207.15 105.87,-152.66 116.37,-131.67"/>
<polygon fill="midnightblue" stroke="midnightblue" points="145.61,-279.99 156.2,-280.39 148.17,-273.48 145.61,-279.99"/>
</g>
<!-- Node6 -->
<g id="node6" class="node">
<title>Node6</title>
<g id="a_node6"><a xlink:href="message_8hpp.html" target="_top" xlink:title=" ">
<polygon fill="none" stroke="black" points="114.5,-224.5 114.5,-243.5 265.5,-243.5 265.5,-224.5 114.5,-224.5"/>
<text text-anchor="middle" x="190" y="-231.5" font-family="Helvetica,sans-Serif" font-size="10.00">include/bitlog/message.hpp</text>
</a>
</g>
</g>
<!-- Node1&#45;&gt;Node6 -->
<g id="edge5" class="edge">
<title>Node1&#45;&gt;Node6</title>
<path fill="none" stroke="midnightblue" d="M190,-269.8C190,-260.91 190,-250.78 190,-243.75"/>
<polygon fill="midnightblue" stroke="midnightblue" points="186.5,-270.08 190,-280.08 193.5,-270.08 186.5,-270.08"/>
</g>
<!-- Node8 -->
<g id="node8" class="node">
<title>Node8</title>
<g id="a_node8"><a xlink:href="formatter_8cpp.html" target="_top" xlink:title=" ">
<polygon fill="none" stroke="black" points="226,-112.5 226,-131.5 326,-131.5 326,-112.5 226,-112.5"/>
<text text-anchor="middle" x="276" y="-119.5" font-family="Helvetica,sans-Serif" font-size="10.00">src/formatter.cpp</text>
</a>
</g>
</g>
<!-- Node1&#45;&gt;Node8 -->
<g id="edge9" class="edge">
<title>Node1&#45;&gt;Node8</title>
<path fill="none" stroke="midnightblue" d="M232.57,-276.49C248.38,-269.57 264.71,-259.2 274,-244 296.24,-207.6 284.46,-152.85 278.64,-131.73"/>
<polygon fill="midnightblue" stroke="midnightblue" points="230.86,-273.41 222.87,-280.37 233.45,-279.91 230.86,-273.41"/>
</g>
<!-- Node3 -->
<g id="node3" class="node">
<title>Node3</title>
<g id="a_node3"><a xlink:href="bitlog_8h.html" target="_top" xlink:title=" ">
<polygon fill="none" stroke="black" points="0,-56.5 0,-75.5 122,-75.5 122,-56.5 0,-56.5"/>
<text text-anchor="middle" x="61" y="-63.5" font-family="Helvetica,sans-Serif" font-size="10.00">include/bitlog/bitlog.h</text>
</a>
</g>
</g>
<!-- Node2&#45;&gt;Node3 -->
<g id="edge2" class="edge">
<title>Node2&#45;&gt;Node3</title>
<path fill="none" stroke="midnightblue" d="M103.82,-105.54C93.12,-95.91 79.74,-83.87 70.82,-75.83"/>
<polygon fill="midnightblue" stroke="midnightblue" points="101.59,-108.24 111.36,-112.32 106.27,-103.03 101.59,-108.24"/>
</g>
<!-- Node5 -->
<g id="node5" class="node">
<title>Node5</title>
<g id="a_node5"><a xlink:href="logger_8cpp.html" target="_top" xlink:title=" ">
<polygon fill="none" stroke="black" points="140,-56.5 140,-75.5 224,-75.5 224,-56.5 140,-56.5"/>
<text text-anchor="middle" x="182" y="-63.5" font-family="Helvetica,sans-Serif" font-size="10.00">src/logger.cpp</text>
</a>
</g>
</g>
<!-- Node2&#45;&gt;Node5 -->
<g id="edge4" class="edge">
<title>Node2&#45;&gt;Node5</title>
<path fill="none" stroke="midnightblue" d="M138.47,-105.54C149.34,-95.91 162.94,-83.87 172.02,-75.83"/>
<polygon fill="midnightblue" stroke="midnightblue" points="135.97,-103.07 130.8,-112.32 140.61,-108.32 135.97,-103.07"/>
</g>
<!-- Node4 -->
<g id="node4" class="node">
<title>Node4</title>
<g id="a_node4"><a xlink:href="bitlog_8cpp.html" target="_top" xlink:title=" ">
<polygon fill="none" stroke="black" points="20,-0.5 20,-19.5 102,-19.5 102,-0.5 20,-0.5"/>
<text text-anchor="middle" x="61" y="-7.5" font-family="Helvetica,sans-Serif" font-size="10.00">src/bitlog.cpp</text>
</a>
</g>
</g>
<!-- Node3&#45;&gt;Node4 -->
<g id="edge3" class="edge">
<title>Node3&#45;&gt;Node4</title>
<path fill="none" stroke="midnightblue" d="M61,-45.8C61,-36.91 61,-26.78 61,-19.75"/>
<polygon fill="midnightblue" stroke="midnightblue" points="57.5,-46.08 61,-56.08 64.5,-46.08 57.5,-46.08"/>
</g>
<!-- Node7 -->
<g id="node7" class="node">
<title>Node7</title>
<g id="a_node7"><a xlink:href="formatter_8hpp.html" target="_top" xlink:title=" ">
<polygon fill="none" stroke="black" points="114,-168.5 114,-187.5 266,-187.5 266,-168.5 114,-168.5"/>
<text text-anchor="middle" x="190" y="-175.5" font-family="Helvetica,sans-Serif" font-size="10.00">include/bitlog/formatter.hpp</text>
</a>
</g>
</g>
<!-- Node6&#45;&gt;Node7 -->
<g id="edge6" class="edge">
<title>Node6&#45;&gt;Node7</title>
<path fill="none" stroke="midnightblue" d="M190,-213.8C190,-204.91 190,-194.78 190,-187.75"/>
<polygon fill="midnightblue" stroke="midnightblue" points="186.5,-214.08 190,-224.08 193.5,-214.08 186.5,-214.08"/>
</g>
<!-- Node7&#45;&gt;Node2 -->
<g id="edge7" class="edge">
<title>Node7&#45;&gt;Node2</title>
<path fill="none" stroke="midnightblue" d="M170.96,-162.1C158.54,-152.38 142.76,-140.03 132.29,-131.83"/>
<polygon fill="midnightblue" stroke="midnightblue" points="168.88,-164.92 178.91,-168.32 173.2,-159.4 168.88,-164.92"/>
</g>
<!-- Node7&#45;&gt;Node8 -->
<g id="edge8" class="edge">
<title>Node7&#45;&gt;Node8</title>
<path fill="none" stroke="midnightblue" d="M212.45,-162.9C228.22,-153 248.81,-140.07 262.22,-131.65"/>
<polygon fill="midnightblue" stroke="midnightblue" points="210.43,-160.04 203.82,-168.32 214.15,-165.97 210.43,-160.04"/>
</g>
</g>
</svg>
