<?xml version="1.0" encoding="UTF-8" standalone="no"?>
<!DOCTYPE svg PUBLIC "-//W3C//DTD SVG 1.1//EN"
 "http://www.w3.org/Graphics/SVG/1.1/DTD/svg11.dtd">
<!-- Generated by graphviz version 2.43.0 (0)
 -->
<!-- Title: include/bitlog/logger.hpp Pages: 1 -->
<svg width="523pt" height="196pt"
 viewBox="0.00 0.00 522.50 196.00" xmlns="http://www.w3.org/2000/svg" xmlns:xlink="http://www.w3.org/1999/xlink">
<g id="graph0" class="graph" transform="scale(1 1) rotate(0) translate(4 192)">
<title>include/bitlog/logger.hpp</title>
<!-- Node1 -->
<g id="node1" class="node">
<title>Node1</title>
<g id="a_node1"><a xlink:title=" ">
<polygon fill="#bfbfbf" stroke="black" points="198.5,-168.5 198.5,-187.5 335.5,-187.5 335.5,-168.5 198.5,-168.5"/>
<text text-anchor="middle" x="267" y="-175.5" font-family="Helvetica,sans-Serif" font-size="10.00">include/bitlog/logger.hpp</text>
</a>
</g>
</g>
<!-- Node2 -->
<g id="node2" class="node">
<title>Node2</title>
<g id="a_node2"><a xlink:title=" ">
<polygon fill="none" stroke="#bfbfbf" points="0,-112.5 0,-131.5 50,-131.5 50,-112.5 0,-112.5"/>
<text text-anchor="middle" x="25" y="-119.5" font-family="Helvetica,sans-Serif" font-size="10.00">atomic</text>
</a>
</g>
</g>
<!-- Node1&#45;&gt;Node2 -->
<g id="edge1" class="edge">
<title>Node1&#45;&gt;Node2</title>
<path fill="none" stroke="midnightblue" d="M228.06,-168.47C187.18,-159.5 121.04,-144.9 64,-132 62.74,-131.72 61.46,-131.42 60.17,-131.13"/>
<polygon fill="midnightblue" stroke="midnightblue" points="60.7,-127.66 50.17,-128.84 59.13,-134.48 60.7,-127.66"/>
</g>
<!-- Node3 -->
<g id="node3" class="node">
<title>Node3</title>
<g id="a_node3"><a xlink:title=" ">
<polygon fill="none" stroke="#bfbfbf" points="40,-56.5 40,-75.5 98,-75.5 98,-56.5 40,-56.5"/>
<text text-anchor="middle" x="69" y="-63.5" font-family="Helvetica,sans-Serif" font-size="10.00">memory</text>
</a>
</g>
</g>
<!-- Node1&#45;&gt;Node3 -->
<g id="edge2" class="edge">
<title>Node1&#45;&gt;Node3</title>
<path fill="none" stroke="midnightblue" d="M198.38,-172.78C164.49,-167.49 124.98,-156.12 97,-132 83.21,-120.11 76,-100.2 72.37,-85.54"/>
<polygon fill="midnightblue" stroke="midnightblue" points="75.76,-84.63 70.25,-75.58 68.91,-86.08 75.76,-84.63"/>
</g>
<!-- Node4 -->
<g id="node4" class="node">
<title>Node4</title>
<g id="a_node4"><a xlink:title=" ">
<polygon fill="none" stroke="#bfbfbf" points="330,-112.5 330,-131.5 378,-131.5 378,-112.5 330,-112.5"/>
<text text-anchor="middle" x="354" y="-119.5" font-family="Helvetica,sans-Serif" font-size="10.00">mutex</text>
</a>
</g>
</g>
<!-- Node1&#45;&gt;Node4 -->
<g id="edge3" class="edge">
<title>Node1&#45;&gt;Node4</title>
<path fill="none" stroke="midnightblue" d="M280.98,-168.32C294.55,-159.9 315.38,-146.97 331.32,-137.07"/>
<polygon fill="midnightblue" stroke="midnightblue" points="333.41,-139.9 340.06,-131.65 329.71,-133.95 333.41,-139.9"/>
</g>
<!-- Node5 -->
<g id="node5" class="node">
<title>Node5</title>
<g id="a_node5"><a xlink:title=" ">
<polygon fill="none" stroke="#bfbfbf" points="396.5,-112.5 396.5,-131.5 443.5,-131.5 443.5,-112.5 396.5,-112.5"/>
<text text-anchor="middle" x="420" y="-119.5" font-family="Helvetica,sans-Serif" font-size="10.00">vector</text>
</a>
</g>
</g>
<!-- Node1&#45;&gt;Node5 -->
<g id="edge4" class="edge">
<title>Node1&#45;&gt;Node5</title>
<path fill="none" stroke="midnightblue" d="M291.24,-168.44C317.02,-159.35 357.96,-144.9 386.74,-134.74"/>
<polygon fill="midnightblue" stroke="midnightblue" points="388.11,-137.97 396.37,-131.34 385.78,-131.37 388.11,-137.97"/>
</g>
<!-- Node6 -->
<g id="node6" class="node">
<title>Node6</title>
<g id="a_node6"><a xlink:title=" ">
<polygon fill="none" stroke="#bfbfbf" points="461.5,-112.5 461.5,-131.5 514.5,-131.5 514.5,-112.5 461.5,-112.5"/>
<text text-anchor="middle" x="488" y="-119.5" font-family="Helvetica,sans-Serif" font-size="10.00">cstdarg</text>
</a>
</g>
</g>
<!-- Node1&#45;&gt;Node6 -->
<g id="edge5" class="edge">
<title>Node1&#45;&gt;Node6</title>
<path fill="none" stroke="midnightblue" d="M303.04,-168.44C338.49,-159.99 394.4,-146.56 451.36,-132.39"/>
<polygon fill="midnightblue" stroke="midnightblue" points="452.4,-135.73 461.26,-129.92 450.71,-128.94 452.4,-135.73"/>
</g>
<!-- Node7 -->
<g id="node7" class="node">
<title>Node7</title>
<g id="a_node7"><a xlink:href="level_8hpp.html" target="_top" xlink:title=" ">
<polygon fill="none" stroke="black" points="271,-0.5 271,-19.5 333,-19.5 333,-0.5 271,-0.5"/>
<text text-anchor="middle" x="302" y="-7.5" font-family="Helvetica,sans-Serif" font-size="10.00">level.hpp</text>
</a>
</g>
</g>
<!-- Node1&#45;&gt;Node7 -->
<g id="edge6" class="edge">
<title>Node1&#45;&gt;Node7</title>
<path fill="none" stroke="midnightblue" d="M270.68,-168.19C274.3,-159.22 279.73,-144.86 283,-132 292.04,-96.4 297.53,-53.75 300.15,-29.78"/>
<polygon fill="midnightblue" stroke="midnightblue" points="303.65,-29.93 301.2,-19.62 296.69,-29.2 303.65,-29.93"/>
</g>
<!-- Node8 -->
<g id="node8" class="node">
<title>Node8</title>
<g id="a_node8"><a xlink:href="formatter_8hpp.html" target="_top" xlink:title=" ">
<polygon fill="none" stroke="black" points="190.5,-112.5 190.5,-131.5 273.5,-131.5 273.5,-112.5 190.5,-112.5"/>
<text text-anchor="middle" x="232" y="-119.5" font-family="Helvetica,sans-Serif" font-size="10.00">formatter.hpp</text>
</a>
</g>
</g>
<!-- Node1&#45;&gt;Node8 -->
<g id="edge7" class="edge">
<title>Node1&#45;&gt;Node8</title>
<path fill="none" stroke="midnightblue" d="M261.22,-168.08C256.33,-160.53 249.17,-149.49 243.17,-140.23"/>
<polygon fill="midnightblue" stroke="midnightblue" points="246.05,-138.24 237.67,-131.75 240.17,-142.05 246.05,-138.24"/>
</g>
<!-- Node12 -->
<g id="node12" class="node">
<title>Node12</title>
<g id="a_node12"><a xlink:href="sink_8hpp.html" target="_top" xlink:title=" ">
<polygon fill="none" stroke="black" points="106,-112.5 106,-131.5 164,-131.5 164,-112.5 106,-112.5"/>
<text text-anchor="middle" x="135" y="-119.5" font-family="Helvetica,sans-Serif" font-size="10.00">sink.hpp</text>
</a>
</g>
</g>
<!-- Node1&#45;&gt;Node12 -->
<g id="edge13" class="edge">
<title>Node1&#45;&gt;Node12</title>
<path fill="none" stroke="midnightblue" d="M246.08,-168.44C224.26,-159.52 189.85,-145.44 165.11,-135.32"/>
<polygon fill="midnightblue" stroke="midnightblue" points="166.4,-132.06 155.82,-131.52 163.75,-138.54 166.4,-132.06"/>
</g>
<!-- Node9 -->
<g id="node9" class="node">
<title>Node9</title>
<g id="a_node9"><a xlink:title=" ">
<polygon fill="none" stroke="#bfbfbf" points="141,-0.5 141,-19.5 185,-19.5 185,-0.5 141,-0.5"/>
<text text-anchor="middle" x="163" y="-7.5" font-family="Helvetica,sans-Serif" font-size="10.00">string</text>
</a>
</g>
</g>
<!-- Node8&#45;&gt;Node9 -->
<g id="edge8" class="edge">
<title>Node8&#45;&gt;Node9</title>
<path fill="none" stroke="midnightblue" d="M219.39,-112.42C208.3,-104.27 192.5,-91.04 183,-76 174.04,-61.81 168.86,-43.33 166.03,-29.7"/>
<polygon fill="midnightblue" stroke="midnightblue" points="169.42,-28.8 164.17,-19.6 162.54,-30.07 169.42,-28.8"/>
</g>
<!-- Node10 -->
<g id="node10" class="node">
<title>Node10</title>
<g id="a_node10"><a xlink:href="message_8hpp.html" target="_top" xlink:title=" ">
<polygon fill="none" stroke="black" points="192,-56.5 192,-75.5 274,-75.5 274,-56.5 192,-56.5"/>
<text text-anchor="middle" x="233" y="-63.5" font-family="Helvetica,sans-Serif" font-size="10.00">message.hpp</text>
</a>
</g>
</g>
<!-- Node8&#45;&gt;Node10 -->
<g id="edge9" class="edge">
<title>Node8&#45;&gt;Node10</title>
<path fill="none" stroke="midnightblue" d="M232.17,-112.08C232.3,-105.01 232.48,-94.86 232.65,-85.99"/>
<polygon fill="midnightblue" stroke="midnightblue" points="236.15,-85.81 232.84,-75.75 229.15,-85.68 236.15,-85.81"/>
</g>
<!-- Node10&#45;&gt;Node7 -->
<g id="edge12" class="edge">
<title>Node10&#45;&gt;Node7</title>
<path fill="none" stroke="midnightblue" d="M244.09,-56.32C254.49,-48.18 270.26,-35.84 282.72,-26.09"/>
<polygon fill="midnightblue" stroke="midnightblue" points="284.99,-28.75 290.71,-19.83 280.68,-23.24 284.99,-28.75"/>
</g>
<!-- Node10&#45;&gt;Node9 -->
<g id="edge10" class="edge">
<title>Node10&#45;&gt;Node9</title>
<path fill="none" stroke="midnightblue" d="M221.75,-56.32C211.2,-48.18 195.2,-35.84 182.56,-26.09"/>
<polygon fill="midnightblue" stroke="midnightblue" points="184.51,-23.17 174.45,-19.83 180.23,-28.71 184.51,-23.17"/>
</g>
<!-- Node11 -->
<g id="node11" class="node">
<title>Node11</title>
<g id="a_node11"><a xlink:title=" ">
<polygon fill="none" stroke="#bfbfbf" points="203,-0.5 203,-19.5 253,-19.5 253,-0.5 203,-0.5"/>
<text text-anchor="middle" x="228" y="-7.5" font-family="Helvetica,sans-Serif" font-size="10.00">chrono</text>
</a>
</g>
</g>
<!-- Node10&#45;&gt;Node11 -->
<g id="edge11" class="edge">
<title>Node10&#45;&gt;Node11</title>
<path fill="none" stroke="midnightblue" d="M232.17,-56.08C231.52,-49.01 230.58,-38.86 229.76,-29.99"/>
<polygon fill="midnightblue" stroke="midnightblue" points="233.22,-29.39 228.81,-19.75 226.25,-30.03 233.22,-29.39"/>
</g>
<!-- Node12&#45;&gt;Node3 -->
<g id="edge14" class="edge">
<title>Node12&#45;&gt;Node3</title>
<path fill="none" stroke="midnightblue" d="M124.4,-112.32C114.54,-104.26 99.65,-92.08 87.78,-82.37"/>
<polygon fill="midnightblue" stroke="midnightblue" points="89.75,-79.46 79.8,-75.83 85.32,-84.88 89.75,-79.46"/>
</g>
<!-- Node12&#45;&gt;Node9 -->
<g id="edge15" class="edge">
<title>Node12&#45;&gt;Node9</title>
<path fill="none" stroke="midnightblue" d="M136.89,-112.13C139.59,-99.58 144.82,-75.95 150,-56 152.3,-47.13 155.09,-37.36 157.5,-29.19"/>
<polygon fill="midnightblue" stroke="midnightblue" points="160.86,-30.17 160.37,-19.59 154.15,-28.17 160.86,-30.17"/>
</g>
</g>
</svg>
