<?xml version="1.0" encoding="UTF-8" standalone="no"?>
<!DOCTYPE svg PUBLIC "-//W3C//DTD SVG 1.1//EN"
 "http://www.w3.org/Graphics/SVG/1.1/DTD/svg11.dtd">
<!-- Generated by graphviz version 2.43.0 (0)
 -->
<!-- Title: src/logger.cpp Pages: 1 -->
<svg width="523pt" height="252pt"
 viewBox="0.00 0.00 523.00 252.00" xmlns="http://www.w3.org/2000/svg" xmlns:xlink="http://www.w3.org/1999/xlink">
<g id="graph0" class="graph" transform="scale(1 1) rotate(0) translate(4 248)">
<title>src/logger.cpp</title>
<!-- Node1 -->
<g id="node1" class="node">
<title>Node1</title>
<g id="a_node1"><a xlink:title=" ">
<polygon fill="#bfbfbf" stroke="black" points="204.5,-224.5 204.5,-243.5 288.5,-243.5 288.5,-224.5 204.5,-224.5"/>
<text text-anchor="middle" x="246.5" y="-231.5" font-family="Helvetica,sans-Serif" font-size="10.00">src/logger.cpp</text>
</a>
</g>
</g>
<!-- Node2 -->
<g id="node2" class="node">
<title>Node2</title>
<g id="a_node2"><a xlink:title=" ">
<polygon fill="none" stroke="#bfbfbf" points="0,-112.5 0,-131.5 47,-131.5 47,-112.5 0,-112.5"/>
<text text-anchor="middle" x="23.5" y="-119.5" font-family="Helvetica,sans-Serif" font-size="10.00">vector</text>
</a>
</g>
</g>
<!-- Node1&#45;&gt;Node2 -->
<g id="edge1" class="edge">
<title>Node1&#45;&gt;Node2</title>
<path fill="none" stroke="midnightblue" d="M225.13,-224.42C203.92,-215.76 170.61,-201.72 142.5,-188 108.7,-171.5 70.73,-150.27 46.97,-136.65"/>
<polygon fill="midnightblue" stroke="midnightblue" points="48.71,-133.61 38.3,-131.65 45.22,-139.68 48.71,-133.61"/>
</g>
<!-- Node3 -->
<g id="node3" class="node">
<title>Node3</title>
<g id="a_node3"><a xlink:title=" ">
<polygon fill="none" stroke="#bfbfbf" points="267.5,-168.5 267.5,-187.5 319.5,-187.5 319.5,-168.5 267.5,-168.5"/>
<text text-anchor="middle" x="293.5" y="-175.5" font-family="Helvetica,sans-Serif" font-size="10.00">cassert</text>
</a>
</g>
</g>
<!-- Node1&#45;&gt;Node3 -->
<g id="edge2" class="edge">
<title>Node1&#45;&gt;Node3</title>
<path fill="none" stroke="midnightblue" d="M254.26,-224.08C261.04,-216.3 271.04,-204.8 279.26,-195.37"/>
<polygon fill="midnightblue" stroke="midnightblue" points="281.96,-197.59 285.88,-187.75 276.68,-193 281.96,-197.59"/>
</g>
<!-- Node4 -->
<g id="node4" class="node">
<title>Node4</title>
<g id="a_node4"><a xlink:title=" ">
<polygon fill="none" stroke="#bfbfbf" points="337.5,-168.5 337.5,-187.5 383.5,-187.5 383.5,-168.5 337.5,-168.5"/>
<text text-anchor="middle" x="360.5" y="-175.5" font-family="Helvetica,sans-Serif" font-size="10.00">cstdio</text>
</a>
</g>
</g>
<!-- Node1&#45;&gt;Node4 -->
<g id="edge3" class="edge">
<title>Node1&#45;&gt;Node4</title>
<path fill="none" stroke="midnightblue" d="M264.56,-224.44C283.07,-215.68 312.08,-201.94 333.36,-191.86"/>
<polygon fill="midnightblue" stroke="midnightblue" points="334.98,-194.96 342.52,-187.52 331.99,-188.63 334.98,-194.96"/>
</g>
<!-- Node5 -->
<g id="node5" class="node">
<title>Node5</title>
<g id="a_node5"><a xlink:href="logger_8hpp.html" target="_top" xlink:title=" ">
<polygon fill="none" stroke="black" points="151.5,-168.5 151.5,-187.5 249.5,-187.5 249.5,-168.5 151.5,-168.5"/>
<text text-anchor="middle" x="200.5" y="-175.5" font-family="Helvetica,sans-Serif" font-size="10.00">bitlog/logger.hpp</text>
</a>
</g>
</g>
<!-- Node1&#45;&gt;Node5 -->
<g id="edge4" class="edge">
<title>Node1&#45;&gt;Node5</title>
<path fill="none" stroke="midnightblue" d="M238.9,-224.08C232.27,-216.3 222.48,-204.8 214.44,-195.37"/>
<polygon fill="midnightblue" stroke="midnightblue" points="217.1,-193.09 207.95,-187.75 211.77,-197.63 217.1,-193.09"/>
</g>
<!-- Node5&#45;&gt;Node2 -->
<g id="edge8" class="edge">
<title>Node5&#45;&gt;Node2</title>
<path fill="none" stroke="midnightblue" d="M172.45,-168.44C141.09,-158.88 90.33,-143.39 56.93,-133.2"/>
<polygon fill="midnightblue" stroke="midnightblue" points="57.75,-129.79 47.17,-130.22 55.71,-136.49 57.75,-129.79"/>
</g>
<!-- Node6 -->
<g id="node6" class="node">
<title>Node6</title>
<g id="a_node6"><a xlink:title=" ">
<polygon fill="none" stroke="#bfbfbf" points="65.5,-112.5 65.5,-131.5 115.5,-131.5 115.5,-112.5 65.5,-112.5"/>
<text text-anchor="middle" x="90.5" y="-119.5" font-family="Helvetica,sans-Serif" font-size="10.00">atomic</text>
</a>
</g>
</g>
<!-- Node5&#45;&gt;Node6 -->
<g id="edge5" class="edge">
<title>Node5&#45;&gt;Node6</title>
<path fill="none" stroke="midnightblue" d="M182.83,-168.32C165.11,-159.62 137.6,-146.12 117.21,-136.11"/>
<polygon fill="midnightblue" stroke="midnightblue" points="118.65,-132.92 108.13,-131.65 115.56,-139.2 118.65,-132.92"/>
</g>
<!-- Node7 -->
<g id="node7" class="node">
<title>Node7</title>
<g id="a_node7"><a xlink:title=" ">
<polygon fill="none" stroke="#bfbfbf" points="105.5,-56.5 105.5,-75.5 163.5,-75.5 163.5,-56.5 105.5,-56.5"/>
<text text-anchor="middle" x="134.5" y="-63.5" font-family="Helvetica,sans-Serif" font-size="10.00">memory</text>
</a>
</g>
</g>
<!-- Node5&#45;&gt;Node7 -->
<g id="edge6" class="edge">
<title>Node5&#45;&gt;Node7</title>
<path fill="none" stroke="midnightblue" d="M191.79,-168.31C183.48,-159.66 171,-145.74 162.5,-132 153.32,-117.16 145.71,-98.78 140.75,-85.35"/>
<polygon fill="midnightblue" stroke="midnightblue" points="144,-84.06 137.36,-75.81 137.41,-86.41 144,-84.06"/>
</g>
<!-- Node8 -->
<g id="node8" class="node">
<title>Node8</title>
<g id="a_node8"><a xlink:title=" ">
<polygon fill="none" stroke="#bfbfbf" points="395.5,-112.5 395.5,-131.5 443.5,-131.5 443.5,-112.5 395.5,-112.5"/>
<text text-anchor="middle" x="419.5" y="-119.5" font-family="Helvetica,sans-Serif" font-size="10.00">mutex</text>
</a>
</g>
</g>
<!-- Node5&#45;&gt;Node8 -->
<g id="edge7" class="edge">
<title>Node5&#45;&gt;Node8</title>
<path fill="none" stroke="midnightblue" d="M235.2,-168.44C276.45,-158.27 344.83,-141.41 385.69,-131.34"/>
<polygon fill="midnightblue" stroke="midnightblue" points="386.58,-134.72 395.45,-128.93 384.9,-127.93 386.58,-134.72"/>
</g>
<!-- Node9 -->
<g id="node9" class="node">
<title>Node9</title>
<g id="a_node9"><a xlink:title=" ">
<polygon fill="none" stroke="#bfbfbf" points="462,-112.5 462,-131.5 515,-131.5 515,-112.5 462,-112.5"/>
<text text-anchor="middle" x="488.5" y="-119.5" font-family="Helvetica,sans-Serif" font-size="10.00">cstdarg</text>
</a>
</g>
</g>
<!-- Node5&#45;&gt;Node9 -->
<g id="edge9" class="edge">
<title>Node5&#45;&gt;Node9</title>
<path fill="none" stroke="midnightblue" d="M249.95,-169.19C298.71,-161.27 375.57,-148.16 451.58,-132.07"/>
<polygon fill="midnightblue" stroke="midnightblue" points="452.76,-135.4 461.81,-129.89 451.3,-128.55 452.76,-135.4"/>
</g>
<!-- Node10 -->
<g id="node10" class="node">
<title>Node10</title>
<g id="a_node10"><a xlink:href="level_8hpp.html" target="_top" xlink:title=" ">
<polygon fill="none" stroke="black" points="336.5,-0.5 336.5,-19.5 398.5,-19.5 398.5,-0.5 336.5,-0.5"/>
<text text-anchor="middle" x="367.5" y="-7.5" font-family="Helvetica,sans-Serif" font-size="10.00">level.hpp</text>
</a>
</g>
</g>
<!-- Node5&#45;&gt;Node10 -->
<g id="edge10" class="edge">
<title>Node5&#45;&gt;Node10</title>
<path fill="none" stroke="midnightblue" d="M241.75,-168.5C278.03,-160.2 327.08,-146.71 340.5,-132 366.41,-103.61 369.31,-55.95 368.69,-29.72"/>
<polygon fill="midnightblue" stroke="midnightblue" points="372.19,-29.45 368.25,-19.61 365.19,-29.76 372.19,-29.45"/>
</g>
<!-- Node11 -->
<g id="node11" class="node">
<title>Node11</title>
<g id="a_node11"><a xlink:href="formatter_8hpp.html" target="_top" xlink:title=" ">
<polygon fill="none" stroke="black" points="248,-112.5 248,-131.5 331,-131.5 331,-112.5 248,-112.5"/>
<text text-anchor="middle" x="289.5" y="-119.5" font-family="Helvetica,sans-Serif" font-size="10.00">formatter.hpp</text>
</a>
</g>
</g>
<!-- Node5&#45;&gt;Node11 -->
<g id="edge11" class="edge">
<title>Node5&#45;&gt;Node11</title>
<path fill="none" stroke="midnightblue" d="M214.8,-168.32C228.68,-159.9 249.99,-146.97 266.3,-137.07"/>
<polygon fill="midnightblue" stroke="midnightblue" points="268.5,-139.83 275.24,-131.65 264.87,-133.85 268.5,-139.83"/>
</g>
<!-- Node15 -->
<g id="node15" class="node">
<title>Node15</title>
<g id="a_node15"><a xlink:href="sink_8hpp.html" target="_top" xlink:title=" ">
<polygon fill="none" stroke="black" points="171.5,-112.5 171.5,-131.5 229.5,-131.5 229.5,-112.5 171.5,-112.5"/>
<text text-anchor="middle" x="200.5" y="-119.5" font-family="Helvetica,sans-Serif" font-size="10.00">sink.hpp</text>
</a>
</g>
</g>
<!-- Node5&#45;&gt;Node15 -->
<g id="edge17" class="edge">
<title>Node5&#45;&gt;Node15</title>
<path fill="none" stroke="midnightblue" d="M200.5,-168.08C200.5,-161.01 200.5,-150.86 200.5,-141.99"/>
<polygon fill="midnightblue" stroke="midnightblue" points="204,-141.75 200.5,-131.75 197,-141.75 204,-141.75"/>
</g>
<!-- Node12 -->
<g id="node12" class="node">
<title>Node12</title>
<g id="a_node12"><a xlink:title=" ">
<polygon fill="none" stroke="#bfbfbf" points="206.5,-0.5 206.5,-19.5 250.5,-19.5 250.5,-0.5 206.5,-0.5"/>
<text text-anchor="middle" x="228.5" y="-7.5" font-family="Helvetica,sans-Serif" font-size="10.00">string</text>
</a>
</g>
</g>
<!-- Node11&#45;&gt;Node12 -->
<g id="edge12" class="edge">
<title>Node11&#45;&gt;Node12</title>
<path fill="none" stroke="midnightblue" d="M279.36,-112.32C270.11,-103.9 256.67,-90.32 248.5,-76 240.27,-61.58 235.05,-43.39 232.01,-29.92"/>
<polygon fill="midnightblue" stroke="midnightblue" points="235.39,-29 229.96,-19.9 228.54,-30.4 235.39,-29"/>
</g>
<!-- Node13 -->
<g id="node13" class="node">
<title>Node13</title>
<g id="a_node13"><a xlink:href="message_8hpp.html" target="_top" xlink:title=" ">
<polygon fill="none" stroke="black" points="257.5,-56.5 257.5,-75.5 339.5,-75.5 339.5,-56.5 257.5,-56.5"/>
<text text-anchor="middle" x="298.5" y="-63.5" font-family="Helvetica,sans-Serif" font-size="10.00">message.hpp</text>
</a>
</g>
</g>
<!-- Node11&#45;&gt;Node13 -->
<g id="edge13" class="edge">
<title>Node11&#45;&gt;Node13</title>
<path fill="none" stroke="midnightblue" d="M290.99,-112.08C292.18,-104.93 293.89,-94.64 295.38,-85.69"/>
<polygon fill="midnightblue" stroke="midnightblue" points="298.85,-86.19 297.04,-75.75 291.95,-85.04 298.85,-86.19"/>
</g>
<!-- Node13&#45;&gt;Node10 -->
<g id="edge16" class="edge">
<title>Node13&#45;&gt;Node10</title>
<path fill="none" stroke="midnightblue" d="M309.59,-56.32C319.99,-48.18 335.76,-35.84 348.22,-26.09"/>
<polygon fill="midnightblue" stroke="midnightblue" points="350.49,-28.75 356.21,-19.83 346.18,-23.24 350.49,-28.75"/>
</g>
<!-- Node13&#45;&gt;Node12 -->
<g id="edge14" class="edge">
<title>Node13&#45;&gt;Node12</title>
<path fill="none" stroke="midnightblue" d="M287.25,-56.32C276.7,-48.18 260.7,-35.84 248.06,-26.09"/>
<polygon fill="midnightblue" stroke="midnightblue" points="250.01,-23.17 239.95,-19.83 245.73,-28.71 250.01,-23.17"/>
</g>
<!-- Node14 -->
<g id="node14" class="node">
<title>Node14</title>
<g id="a_node14"><a xlink:title=" ">
<polygon fill="none" stroke="#bfbfbf" points="268.5,-0.5 268.5,-19.5 318.5,-19.5 318.5,-0.5 268.5,-0.5"/>
<text text-anchor="middle" x="293.5" y="-7.5" font-family="Helvetica,sans-Serif" font-size="10.00">chrono</text>
</a>
</g>
</g>
<!-- Node13&#45;&gt;Node14 -->
<g id="edge15" class="edge">
<title>Node13&#45;&gt;Node14</title>
<path fill="none" stroke="midnightblue" d="M297.67,-56.08C297.02,-49.01 296.08,-38.86 295.26,-29.99"/>
<polygon fill="midnightblue" stroke="midnightblue" points="298.72,-29.39 294.31,-19.75 291.75,-30.03 298.72,-29.39"/>
</g>
<!-- Node15&#45;&gt;Node7 -->
<g id="edge18" class="edge">
<title>Node15&#45;&gt;Node7</title>
<path fill="none" stroke="midnightblue" d="M189.9,-112.32C180.04,-104.26 165.15,-92.08 153.28,-82.37"/>
<polygon fill="midnightblue" stroke="midnightblue" points="155.25,-79.46 145.3,-75.83 150.82,-84.88 155.25,-79.46"/>
</g>
<!-- Node15&#45;&gt;Node12 -->
<g id="edge19" class="edge">
<title>Node15&#45;&gt;Node12</title>
<path fill="none" stroke="midnightblue" d="M202.39,-112.13C205.09,-99.58 210.32,-75.95 215.5,-56 217.8,-47.13 220.59,-37.36 223,-29.19"/>
<polygon fill="midnightblue" stroke="midnightblue" points="226.36,-30.17 225.87,-19.59 219.65,-28.17 226.36,-30.17"/>
</g>
</g>
</svg>
