<?xml version="1.0" encoding="UTF-8" standalone="no"?>
<!DOCTYPE svg PUBLIC "-//W3C//DTD SVG 1.1//EN"
 "http://www.w3.org/Graphics/SVG/1.1/DTD/svg11.dtd">
<!-- Generated by graphviz version 2.43.0 (0)
 -->
<!-- Title: bitlog::root Pages: 1 -->
<svg width="247pt" height="78pt"
 viewBox="0.00 0.00 247.00 77.50" xmlns="http://www.w3.org/2000/svg" xmlns:xlink="http://www.w3.org/1999/xlink">
<g id="graph0" class="graph" transform="scale(1 1) rotate(0) translate(4 73.5)">
<title>bitlog::root</title>
<!-- Node1 -->
<g id="node1" class="node">
<title>Node1</title>
<g id="a_node1"><a xlink:title=" ">
<polygon fill="#bfbfbf" stroke="black" points="0,-28 0,-47 70,-47 70,-28 0,-28"/>
<text text-anchor="middle" x="35" y="-35" font-family="Helvetica,sans-Serif" font-size="10.00">bitlog::root</text>
</a>
</g>
</g>
<!-- Node2 -->
<g id="node2" class="node">
<title>Node2</title>
<g id="a_node2"><a xlink:href="classbitlog_1_1Logger.html#a1c3e3eb6836a992964b1133c6a2718c0" target="_top" xlink:title=" ">
<polygon fill="none" stroke="black" points="106,-50 106,-69 239,-69 239,-50 106,-50"/>
<text text-anchor="middle" x="172.5" y="-57" font-family="Helvetica,sans-Serif" font-size="10.00">bitlog::Logger::add_sink</text>
</a>
</g>
</g>
<!-- Node1&#45;&gt;Node2 -->
<g id="edge1" class="edge">
<title>Node1&#45;&gt;Node2</title>
<path fill="none" stroke="midnightblue" d="M70.19,-43.05C80.2,-44.68 91.51,-46.51 102.85,-48.35"/>
<polygon fill="midnightblue" stroke="midnightblue" points="102.37,-51.82 112.8,-49.97 103.49,-44.91 102.37,-51.82"/>
</g>
<!-- Node3 -->
<g id="node3" class="node">
<title>Node3</title>
<g id="a_node3"><a xlink:href="classbitlog_1_1Logger.html#a5b07a65f080ea07df89498b30c80d5db" target="_top" xlink:title=" ">
<polygon fill="none" stroke="black" points="120.5,-0.5 120.5,-30.5 224.5,-30.5 224.5,-0.5 120.5,-0.5"/>
<text text-anchor="start" x="128.5" y="-18.5" font-family="Helvetica,sans-Serif" font-size="10.00">bitlog::Logger::set</text>
<text text-anchor="middle" x="172.5" y="-7.5" font-family="Helvetica,sans-Serif" font-size="10.00">_level</text>
</a>
</g>
</g>
<!-- Node1&#45;&gt;Node3 -->
<g id="edge2" class="edge">
<title>Node1&#45;&gt;Node3</title>
<path fill="none" stroke="midnightblue" d="M70.19,-31.95C82.43,-29.96 96.62,-27.66 110.44,-25.41"/>
<polygon fill="midnightblue" stroke="midnightblue" points="111.1,-28.85 120.41,-23.8 109.97,-21.94 111.1,-28.85"/>
</g>
</g>
</svg>
